<svg width="203" height="34" viewBox="0 0 203 34" fill="none" xmlns="http://www.w3.org/2000/svg">
<path d="M197.92 22.3349V19.7249H197V19.2949H199.25V19.7249H198.37V22.3349H197.92ZM202.24 22.3349V20.0849L201.24 21.4249L200.24 20.0849V22.3349H199.75V19.3349H200.24L201.24 20.7149L202.24 19.3349H202.73V22.3349H202.24Z" fill="black"/>
<path d="M55.99 27.1949H55.94L47.7 14.5049H44.1V32.8049H47.19V19.3549H47.24L55.99 32.8049H59.08V14.5049H55.99V27.1949ZM67.62 19.0449C63.96 19.0449 61.29 21.7249 61.29 26.1349C61.29 30.5449 63.91 33.1349 67.57 33.1349C71.23 33.1349 73.9 30.4549 73.9 26.0549C73.9 21.6549 71.28 19.0449 67.62 19.0449ZM67.62 30.4849C65.72 30.4849 64.41 28.8949 64.41 26.1049C64.41 23.3149 65.72 21.7249 67.62 21.7249C69.52 21.7249 70.84 23.3249 70.84 26.1049C70.84 28.8849 69.5 30.4849 67.59 30.4849H67.62ZM83 19.0449C82.2854 19.0388 81.5768 19.1755 80.9157 19.4468C80.2546 19.7181 79.6543 20.1186 79.15 20.6249V14.5049H76.06V32.8049H78.79L78.92 31.3149C79.3821 31.8996 79.9721 32.3704 80.6448 32.6911C81.3175 33.0119 82.0548 33.1739 82.8 33.1649C86.3 33.1649 88.62 30.2849 88.62 25.9549C88.62 21.6249 86.43 19.0449 83 19.0449ZM82.15 30.4849C81.5663 30.4705 80.9934 30.3245 80.4739 30.0578C79.9545 29.7912 79.5019 29.4108 79.15 28.9449V23.2249C79.5074 22.768 79.9621 22.3963 80.481 22.1369C80.9999 21.8774 81.57 21.7367 82.15 21.7249C84.27 21.7249 85.5 23.3249 85.5 26.0549C85.5 28.7849 84.24 30.4849 82.16 30.4849H82.15ZM96.62 19.0449C92.89 19.0449 90.39 21.9049 90.39 26.1849C90.39 30.4649 92.89 33.1849 96.88 33.1849C98.7817 33.1962 100.625 32.5297 102.08 31.3049L100.71 29.1149C99.6905 30.0406 98.3762 30.5755 97 30.6249C95 30.6249 93.86 29.4649 93.55 27.2449H102.55V26.0349C102.54 21.7549 100.23 19.0449 96.62 19.0449ZM93.53 25.1049C93.61 22.9349 94.82 21.4649 96.53 21.4649C98.24 21.4649 99.39 22.8849 99.46 25.1049H93.53ZM109 30.3849C108.3 30.3849 107.94 30.0249 107.94 29.2749V14.5049H104.86V29.9449C104.808 30.3543 104.849 30.7702 104.981 31.1614C105.112 31.5527 105.33 31.9092 105.619 32.2044C105.907 32.4996 106.258 32.7258 106.647 32.8661C107.035 33.0065 107.449 33.0573 107.86 33.0149C108.689 32.999 109.511 32.8608 110.3 32.6049L110.04 30.2349C109.701 30.3262 109.351 30.3765 109 30.3849ZM126.62 23.2249V23.1649C127.429 22.8662 128.123 22.3175 128.599 21.5982C129.076 20.879 129.311 20.0267 129.27 19.1649C129.27 16.3349 127.16 14.5249 123.86 14.5249H117.22V32.8249H124C127.66 32.8249 130 30.8249 130 27.7249C130.055 26.6972 129.746 25.683 129.128 24.8602C128.51 24.0373 127.622 23.4584 126.62 23.2249ZM119 16.1049H123.77C126.08 16.1049 127.55 17.3749 127.55 19.3849C127.55 21.3949 126.13 22.5549 123.89 22.5549H119V16.1049ZM124 31.2149H119V24.0949H124C126.68 24.0949 128.25 25.3849 128.25 27.6049C128.25 29.8249 126.64 31.2149 124 31.2149ZM133.68 14.7249C133.451 14.7249 133.226 14.7929 133.036 14.9204C132.845 15.0478 132.696 15.229 132.608 15.441C132.52 15.6529 132.497 15.8862 132.542 16.1112C132.587 16.3362 132.698 16.5429 132.86 16.7051C133.022 16.8674 133.229 16.9778 133.454 17.0226C133.679 17.0674 133.912 17.0444 134.124 16.9566C134.336 16.8688 134.517 16.7201 134.644 16.5293C134.772 16.3386 134.84 16.1143 134.84 15.8849C134.846 15.731 134.819 15.5777 134.763 15.4344C134.707 15.2912 134.622 15.161 134.513 15.0522C134.404 14.9433 134.274 14.8581 134.13 14.8018C133.987 14.7455 133.834 14.7193 133.68 14.7249ZM132.83 19.3949H134.53V32.7949H132.83V19.3949ZM143.15 19.0449C139.57 19.0449 137.15 21.8849 137.15 26.1349C137.15 30.3849 139.52 33.1349 143.07 33.1349C146.62 33.1349 149.07 30.3049 149.07 26.0549C149.07 21.8049 146.7 19.0449 143.15 19.0449ZM143.15 31.6249C140.58 31.6249 138.91 29.4849 138.91 26.1049C138.91 22.7249 140.55 20.6249 143.12 20.6249C145.69 20.6249 147.37 22.7649 147.37 26.1349C147.37 29.5049 145.7 31.6249 143.12 31.6249H143.15ZM156.56 31.6749C154.11 31.6749 152.49 29.4549 152.49 26.1349C152.49 22.8149 154.16 20.5449 156.69 20.5449C157.501 20.5609 158.285 20.8367 158.928 21.3317C159.571 21.8267 160.038 22.5148 160.26 23.2949L161.76 22.6049C161.391 21.5709 160.714 20.675 159.82 20.0383C158.926 19.4017 157.858 19.0549 156.76 19.0449C153.23 19.0449 150.84 21.9049 150.84 26.1549C150.84 30.4049 153.16 33.1549 156.61 33.1549C158.87 33.1549 160.7 31.8749 161.86 29.4449L160.39 28.7049C159.41 30.6749 158.15 31.6749 156.56 31.6749ZM174.19 29.2749V23.4549C174.19 20.4549 172.67 19.0449 169.53 19.0449C167.553 19.0878 165.62 19.6314 163.91 20.6249L164.51 22.0449C165.947 21.1182 167.611 20.6028 169.32 20.5549C171.48 20.5549 172.49 21.5049 172.49 23.5549V24.5549C165.67 24.9449 163.49 26.0249 163.49 28.9849C163.49 31.5349 165.29 33.1849 168.07 33.1849C169.759 33.1565 171.372 32.4756 172.57 31.2849C172.643 31.6971 172.814 32.0854 173.07 32.4164C173.326 32.7474 173.659 33.0112 174.04 33.1849L175.12 32.2349C174.37 31.6249 174.19 31.0349 174.19 29.2749ZM172.49 29.8149C171.99 30.4029 171.369 30.8774 170.671 31.2068C169.973 31.5362 169.212 31.7128 168.44 31.7249C166.44 31.7249 165.18 30.7249 165.18 28.9649C165.18 26.8549 166.77 26.1549 172.49 25.7749V29.8149ZM179.3 21.5249V19.4049H177.61V32.8049H179.3V23.1149C179.748 22.3984 180.366 21.803 181.098 21.381C181.83 20.959 182.655 20.7234 183.5 20.6949C183.923 20.6983 184.345 20.7418 184.76 20.8249V19.1449C184.359 19.0844 183.955 19.0509 183.55 19.0449C182.688 19.0567 181.843 19.2913 181.099 19.7259C180.354 20.1604 179.734 20.7802 179.3 21.5249ZM191 19.0749C187.5 19.0749 185.13 21.9649 185.13 26.2149C185.13 30.4649 187.5 33.2149 191.25 33.2149C193.079 33.2125 194.834 32.4947 196.14 31.2149L195.32 29.9749C194.262 31.0449 192.825 31.6555 191.32 31.6749C188.73 31.6749 187.08 29.9049 186.85 26.8049H196.63V26.0349C196.59 21.8149 194.4 19.0749 191 19.0749ZM186.85 25.4949C187 22.5549 188.61 20.6249 191 20.6249C193.39 20.6249 194.84 22.5349 194.94 25.5449L186.85 25.4949Z" fill="white"/>
<path d="M28.16 5.25488V28.3449C28.16 28.5067 28.0957 28.6618 27.9813 28.7762C27.8669 28.8906 27.7118 28.9549 27.55 28.9549H23.17C21.75 28.9549 21.27 28.7649 20.81 28.1249L10 13.1649C9.91149 13.0913 9.80395 13.0442 9.68981 13.0291C9.57568 13.014 9.4596 13.0316 9.35501 13.0797C9.25042 13.1278 9.16158 13.2045 9.09876 13.301C9.03593 13.3975 9.0017 13.5098 9 13.6249V17.8049C9.00077 18.0065 9.07961 18.2001 9.22 18.3449L18.31 31.3449C18.6926 31.8621 19.2014 32.2726 19.788 32.537C20.3745 32.8014 21.0191 32.9108 21.66 32.8549H31.57C31.7318 32.8549 31.8869 32.7906 32.0013 32.6762C32.1157 32.5618 32.18 32.4067 32.18 32.2449V1.23488C32.18 1.0731 32.1157 0.91794 32.0013 0.803543C31.8869 0.689146 31.7318 0.624878 31.57 0.624878H23.07C22.9082 0.624878 22.7531 0.689146 22.6387 0.803543C22.5243 0.91794 22.46 1.0731 22.46 1.23488V4.03488C22.46 4.19666 22.5243 4.35182 22.6387 4.46621C22.7531 4.58061 22.9082 4.64488 23.07 4.64488H27.55C27.7118 4.64488 27.8669 4.70915 27.9813 4.82354C28.0957 4.93794 28.16 5.0931 28.16 5.25488Z" fill="#CC0000"/>
<path d="M4 28.1749V5.09488C4 5.01478 4.01578 4.93546 4.04643 4.86145C4.07709 4.78744 4.12202 4.72019 4.17866 4.66355C4.23531 4.60691 4.30255 4.56197 4.37656 4.53132C4.45057 4.50066 4.52989 4.48488 4.61 4.48488H9C10.42 4.48488 10.89 4.66489 11.35 5.31489L22.12 20.3149C22.2066 20.3983 22.3156 20.4548 22.4337 20.4774C22.5518 20.5 22.6739 20.4878 22.7852 20.4422C22.8965 20.3966 22.9921 20.3197 23.0604 20.2207C23.1287 20.1218 23.1668 20.0051 23.17 19.8849V15.6249C23.1732 15.4435 23.1131 15.2667 23 15.1249L13.9 2.12488C13.5136 1.60484 12.9993 1.19346 12.4071 0.930654C11.8149 0.667844 11.1649 0.562516 10.52 0.624885H0.61C0.448218 0.624885 0.293062 0.689153 0.178665 0.80355C0.0642677 0.917947 0 1.0731 0 1.23488L0 32.2349C0 32.3967 0.0642677 32.5518 0.178665 32.6662C0.293062 32.7806 0.448218 32.8449 0.61 32.8449H9.11C9.27178 32.8449 9.42694 32.7806 9.54134 32.6662C9.65573 32.5518 9.72 32.3967 9.72 32.2349V29.4349C9.72 29.2731 9.65573 29.1179 9.54134 29.0035C9.42694 28.8892 9.27178 28.8249 9.11 28.8249H4.63C4.54475 28.8279 4.45982 28.8129 4.38069 28.7811C4.30157 28.7492 4.23001 28.7011 4.17064 28.6398C4.11127 28.5785 4.06541 28.5055 4.03602 28.4254C4.00662 28.3454 3.99435 28.26 4 28.1749Z" fill="#CC0000"/>
</svg>
