<svg width="33" height="33" viewBox="0 0 33 33" fill="none" xmlns="http://www.w3.org/2000/svg">
<path d="M28.16 4.86242V27.9524C28.16 28.1142 28.0957 28.2694 27.9813 28.3838C27.8669 28.4982 27.7118 28.5624 27.55 28.5624H23.17C21.75 28.5624 21.27 28.3724 20.81 27.7324L10 12.7724C9.91149 12.6988 9.80395 12.6517 9.68981 12.6367C9.57568 12.6216 9.4596 12.6391 9.35501 12.6872C9.25042 12.7353 9.16158 12.8121 9.09876 12.9085C9.03593 13.005 9.0017 13.1173 9 13.2324V17.4124C9.00077 17.6141 9.07961 17.8076 9.22 17.9524L18.31 30.9524C18.6926 31.4697 19.2014 31.8802 19.788 32.1445C20.3745 32.4089 21.0191 32.5184 21.66 32.4624H31.57C31.7318 32.4624 31.8869 32.3982 32.0013 32.2838C32.1157 32.1694 32.18 32.0142 32.18 31.8524V0.842422C32.18 0.68064 32.1157 0.525484 32.0013 0.411087C31.8869 0.29669 31.7318 0.232422 31.57 0.232422H23.07C22.9082 0.232422 22.7531 0.29669 22.6387 0.411087C22.5243 0.525484 22.46 0.68064 22.46 0.842422V3.64242C22.46 3.8042 22.5243 3.95936 22.6387 4.07376C22.7531 4.18815 22.9082 4.25242 23.07 4.25242H27.55C27.7118 4.25242 27.8669 4.31669 27.9813 4.43109C28.0957 4.54548 28.16 4.70064 28.16 4.86242Z" fill="#CC0000"/>
<path d="M4 27.7824V4.70243C4 4.62232 4.01578 4.543 4.04643 4.46899C4.07709 4.39498 4.12202 4.32774 4.17866 4.27109C4.23531 4.21445 4.30255 4.16952 4.37656 4.13886C4.45057 4.10821 4.52989 4.09243 4.61 4.09243H9C10.42 4.09243 10.89 4.27243 11.35 4.92243L22.12 19.9224C22.2066 20.0059 22.3156 20.0623 22.4337 20.0849C22.5518 20.1075 22.6739 20.0953 22.7852 20.0497C22.8965 20.0042 22.9921 19.9272 23.0604 19.8283C23.1287 19.7293 23.1668 19.6126 23.17 19.4924V15.2324C23.1732 15.0511 23.1131 14.8743 23 14.7324L13.9 1.73243C13.5136 1.21238 12.9993 0.801007 12.4071 0.538198C11.8149 0.275388 11.1649 0.17006 10.52 0.232429H0.61C0.448218 0.232429 0.293062 0.296697 0.178665 0.411094C0.0642677 0.525491 0 0.680647 0 0.842429L0 31.8424C0 32.0042 0.0642677 32.1594 0.178665 32.2738C0.293062 32.3882 0.448218 32.4524 0.61 32.4524H9.11C9.27178 32.4524 9.42694 32.3882 9.54134 32.2738C9.65573 32.1594 9.72 32.0042 9.72 31.8424V29.0424C9.72 28.8806 9.65573 28.7255 9.54134 28.6111C9.42694 28.4967 9.27178 28.4324 9.11 28.4324H4.63C4.54475 28.4354 4.45982 28.4205 4.38069 28.3886C4.30157 28.3567 4.23001 28.3086 4.17064 28.2473C4.11127 28.1861 4.06541 28.1131 4.03602 28.033C4.00662 27.9529 3.99435 27.8675 4 27.7824Z" fill="#CC0000"/>
</svg>
