<svg width="203" height="33" viewBox="0 0 203 33" fill="none" xmlns="http://www.w3.org/2000/svg">
<path d="M197.92 21.7275V19.1175H197V18.6875H199.25V19.1175H198.37V21.7275H197.92ZM202.24 21.7275V19.4775L201.24 20.8175L200.24 19.4775V21.7275H199.75V18.7275H200.24L201.24 20.1075L202.24 18.7275H202.73V21.7275H202.24Z" fill="black"/>
<path d="M55.99 26.5875H55.94L47.7 13.8975H44.1V32.1975H47.19V18.7475H47.24L55.99 32.1975H59.08V13.8975H55.99V26.5875ZM67.62 18.4375C63.96 18.4375 61.29 21.1175 61.29 25.5275C61.29 29.9375 63.91 32.5275 67.57 32.5275C71.23 32.5275 73.9 29.8475 73.9 25.4475C73.9 21.0475 71.28 18.4375 67.62 18.4375ZM67.62 29.8775C65.72 29.8775 64.41 28.2875 64.41 25.4975C64.41 22.7075 65.72 21.1175 67.62 21.1175C69.52 21.1175 70.84 22.7175 70.84 25.4975C70.84 28.2775 69.5 29.8775 67.59 29.8775H67.62ZM83 18.4375C82.2854 18.4314 81.5768 18.568 80.9157 18.8393C80.2546 19.1107 79.6543 19.5112 79.15 20.0175V13.8975H76.06V32.1975H78.79L78.92 30.7075C79.3821 31.2921 79.9721 31.763 80.6448 32.0837C81.3175 32.4044 82.0548 32.5665 82.8 32.5575C86.3 32.5575 88.62 29.6775 88.62 25.3475C88.62 21.0175 86.43 18.4375 83 18.4375ZM82.15 29.8775C81.5663 29.863 80.9934 29.7171 80.4739 29.4504C79.9545 29.1838 79.5019 28.8033 79.15 28.3375V22.6175C79.5074 22.1605 79.9621 21.7889 80.481 21.5294C80.9999 21.27 81.57 21.1293 82.15 21.1175C84.27 21.1175 85.5 22.7175 85.5 25.4475C85.5 28.1775 84.24 29.8775 82.16 29.8775H82.15ZM96.62 18.4375C92.89 18.4375 90.39 21.2975 90.39 25.5775C90.39 29.8575 92.89 32.5775 96.88 32.5775C98.7817 32.5888 100.625 31.9223 102.08 30.6975L100.71 28.5075C99.6905 29.4332 98.3762 29.9681 97 30.0175C95 30.0175 93.86 28.8575 93.55 26.6375H102.55V25.4275C102.54 21.1475 100.23 18.4375 96.62 18.4375ZM93.53 24.4975C93.61 22.3275 94.82 20.8575 96.53 20.8575C98.24 20.8575 99.39 22.2775 99.46 24.4975H93.53ZM109 29.7775C108.3 29.7775 107.94 29.4175 107.94 28.6675V13.8975H104.86V29.3375C104.808 29.7469 104.849 30.1628 104.981 30.554C105.112 30.9453 105.33 31.3018 105.619 31.597C105.907 31.8922 106.258 32.1184 106.647 32.2587C107.035 32.399 107.449 32.4499 107.86 32.4075C108.689 32.3915 109.511 32.2534 110.3 31.9975L110.04 29.6275C109.701 29.7187 109.351 29.7691 109 29.7775ZM126.62 22.6175V22.5575C127.429 22.2588 128.123 21.71 128.599 20.9908C129.076 20.2716 129.311 19.4193 129.27 18.5575C129.27 15.7275 127.16 13.9175 123.86 13.9175H117.22V32.2175H124C127.66 32.2175 130 30.2175 130 27.1175C130.055 26.0898 129.746 25.0756 129.128 24.2528C128.51 23.4299 127.622 22.8509 126.62 22.6175ZM119 15.4975H123.77C126.08 15.4975 127.55 16.7675 127.55 18.7775C127.55 20.7875 126.13 21.9475 123.89 21.9475H119V15.4975ZM124 30.6075H119V23.4875H124C126.68 23.4875 128.25 24.7775 128.25 26.9975C128.25 29.2175 126.64 30.6075 124 30.6075ZM133.68 14.1175C133.451 14.1175 133.226 14.1855 133.036 14.313C132.845 14.4404 132.696 14.6216 132.608 14.8335C132.52 15.0455 132.497 15.2787 132.542 15.5038C132.587 15.7288 132.698 15.9355 132.86 16.0977C133.022 16.2599 133.229 16.3704 133.454 16.4152C133.679 16.4599 133.912 16.437 134.124 16.3492C134.336 16.2614 134.517 16.1127 134.644 15.9219C134.772 15.7312 134.84 15.5069 134.84 15.2775C134.846 15.1236 134.819 14.9703 134.763 14.827C134.707 14.6837 134.622 14.5536 134.513 14.4448C134.404 14.3359 134.274 14.2507 134.13 14.1943C133.987 14.138 133.834 14.1119 133.68 14.1175ZM132.83 18.7875H134.53V32.1875H132.83V18.7875ZM143.15 18.4375C139.57 18.4375 137.15 21.2775 137.15 25.5275C137.15 29.7775 139.52 32.5275 143.07 32.5275C146.62 32.5275 149.07 29.6975 149.07 25.4475C149.07 21.1975 146.7 18.4375 143.15 18.4375ZM143.15 31.0175C140.58 31.0175 138.91 28.8775 138.91 25.4975C138.91 22.1175 140.55 20.0175 143.12 20.0175C145.69 20.0175 147.37 22.1575 147.37 25.5275C147.37 28.8975 145.7 31.0175 143.12 31.0175H143.15ZM156.56 31.0675C154.11 31.0675 152.49 28.8475 152.49 25.5275C152.49 22.2075 154.16 19.9375 156.69 19.9375C157.501 19.9535 158.285 20.2292 158.928 20.7242C159.571 21.2193 160.038 21.9074 160.26 22.6875L161.76 21.9975C161.391 20.9635 160.714 20.0676 159.82 19.4309C158.926 18.7942 157.858 18.4475 156.76 18.4375C153.23 18.4375 150.84 21.2975 150.84 25.5475C150.84 29.7975 153.16 32.5475 156.61 32.5475C158.87 32.5475 160.7 31.2675 161.86 28.8375L160.39 28.0975C159.41 30.0675 158.15 31.0675 156.56 31.0675ZM174.19 28.6675V22.8475C174.19 19.8475 172.67 18.4375 169.53 18.4375C167.553 18.4804 165.62 19.024 163.91 20.0175L164.51 21.4375C165.947 20.5107 167.611 19.9954 169.32 19.9475C171.48 19.9475 172.49 20.8975 172.49 22.9475V23.9475C165.67 24.3375 163.49 25.4175 163.49 28.3775C163.49 30.9275 165.29 32.5775 168.07 32.5775C169.759 32.5491 171.372 31.8682 172.57 30.6775C172.643 31.0896 172.814 31.478 173.07 31.809C173.326 32.14 173.659 32.4037 174.04 32.5775L175.12 31.6275C174.37 31.0175 174.19 30.4275 174.19 28.6675ZM172.49 29.2075C171.99 29.7955 171.369 30.27 170.671 30.5994C169.973 30.9287 169.212 31.1054 168.44 31.1175C166.44 31.1175 165.18 30.1175 165.18 28.3575C165.18 26.2475 166.77 25.5475 172.49 25.1675V29.2075ZM179.3 20.9175V18.7975H177.61V32.1975H179.3V22.5075C179.748 21.791 180.366 21.1956 181.098 20.7736C181.83 20.3516 182.655 20.116 183.5 20.0875C183.923 20.0908 184.345 20.1344 184.76 20.2175V18.5375C184.359 18.4769 183.955 18.4435 183.55 18.4375C182.688 18.4493 181.843 18.6839 181.099 19.1185C180.354 19.553 179.734 20.1727 179.3 20.9175ZM191 18.4675C187.5 18.4675 185.13 21.3575 185.13 25.6075C185.13 29.8575 187.5 32.6075 191.25 32.6075C193.079 32.6051 194.834 31.8873 196.14 30.6075L195.32 29.3675C194.262 30.4374 192.825 31.0481 191.32 31.0675C188.73 31.0675 187.08 29.2975 186.85 26.1975H196.63V25.4275C196.59 21.2075 194.4 18.4675 191 18.4675ZM186.85 24.8875C187 21.9475 188.61 20.0175 191 20.0175C193.39 20.0175 194.84 21.9275 194.94 24.9375L186.85 24.8875Z" fill="black"/>
<path d="M28.16 4.64746V27.7375C28.16 27.8992 28.0957 28.0544 27.9813 28.1688C27.8669 28.2832 27.7118 28.3475 27.55 28.3475H23.17C21.75 28.3475 21.27 28.1575 20.81 27.5175L10 12.5575C9.91149 12.4838 9.80395 12.4368 9.68981 12.4217C9.57568 12.4066 9.4596 12.4242 9.35501 12.4723C9.25042 12.5204 9.16158 12.5971 9.09876 12.6936C9.03593 12.7901 9.0017 12.9023 9 13.0175V17.1975C9.00077 17.3991 9.07961 17.5927 9.22 17.7375L18.31 30.7375C18.6926 31.2547 19.2014 31.6652 19.788 31.9296C20.3745 32.1939 21.0191 32.3034 21.66 32.2475H31.57C31.7318 32.2475 31.8869 32.1832 32.0013 32.0688C32.1157 31.9544 32.18 31.7992 32.18 31.6375V0.627456C32.18 0.465674 32.1157 0.310518 32.0013 0.196121C31.8869 0.0817237 31.7318 0.0174561 31.57 0.0174561L23.07 0.0174561C22.9082 0.0174561 22.7531 0.0817237 22.6387 0.196121C22.5243 0.310518 22.46 0.465674 22.46 0.627456V3.42746C22.46 3.58924 22.5243 3.74439 22.6387 3.85879C22.7531 3.97319 22.9082 4.03746 23.07 4.03746H27.55C27.7118 4.03746 27.8669 4.10172 27.9813 4.21612C28.0957 4.33052 28.16 4.48567 28.16 4.64746Z" fill="#CC0000"/>
<path d="M4 27.5675V4.48746C4 4.40736 4.01578 4.32803 4.04643 4.25403C4.07709 4.18002 4.12202 4.11277 4.17866 4.05613C4.23531 3.99948 4.30255 3.95455 4.37656 3.9239C4.45057 3.89324 4.52989 3.87746 4.61 3.87746H9C10.42 3.87746 10.89 4.05746 11.35 4.70746L22.12 19.7075C22.2066 19.7909 22.3156 19.8474 22.4337 19.87C22.5518 19.8926 22.6739 19.8803 22.7852 19.8348C22.8965 19.7892 22.9921 19.7123 23.0604 19.6133C23.1287 19.5144 23.1668 19.3977 23.17 19.2775V15.0175C23.1732 14.8361 23.1131 14.6593 23 14.5175L13.9 1.51746C13.5136 0.997416 12.9993 0.586042 12.4071 0.323232C11.8149 0.0604219 11.1649 -0.0449055 10.52 0.0174631H0.61C0.448218 0.0174631 0.293062 0.0817307 0.178665 0.196128C0.0642677 0.310525 0 0.465681 0 0.627463L0 31.6275C0 31.7892 0.0642677 31.9444 0.178665 32.0588C0.293062 32.1732 0.448218 32.2375 0.61 32.2375H9.11C9.27178 32.2375 9.42694 32.1732 9.54134 32.0588C9.65573 31.9444 9.72 31.7892 9.72 31.6275V28.8275C9.72 28.6657 9.65573 28.5105 9.54134 28.3961C9.42694 28.2817 9.27178 28.2175 9.11 28.2175H4.63C4.54475 28.2204 4.45982 28.2055 4.38069 28.1736C4.30157 28.1418 4.23001 28.0936 4.17064 28.0324C4.11127 27.9711 4.06541 27.8981 4.03602 27.818C4.00662 27.7379 3.99435 27.6526 4 27.5675Z" fill="#CC0000"/>
</svg>
